<?xml version="1.0"?>
<!-- Copyright 2013 Zack Weinberg <zackw@panix.com> and other contributors.
     Licensed under the Apache License, Version 2.0 (the "License");
     you may not use this file except in compliance with the License.
     You may obtain a copy of the License at
     http://www.apache.org/licenses/LICENSE-2.0
     There is NO WARRANTY. -->
<svg xmlns="http://www.w3.org/2000/svg"
     xmlns:xlink="http://www.w3.org/1999/xlink"
     version="1.1" viewBox="0 0 120 120">
<defs>
<symbol id="sY" viewBox="0 0 30 30">
  <path fill="#4a4" d="m26,15a11,11,0,1,1,-22,0,11,11,0,1,1,22,0z"/>
</symbol>
<symbol id="sP" viewBox="0 0 30 30">
  <path stroke-linejoin="round" stroke-linecap="round" stroke-width="3"
        fill="none" stroke="#80c"
        d="m27,15-9,3-3,9-3-9-9-3,9-3,3-9,3,9z"/>
</symbol>
<symbol id="sB" viewBox="0 0 30 30">
  <path stroke-linecap="round" stroke-width="4" stroke="#d40000" fill="none"
        d="m3,3,24,24m0-24-24,24"/>
</symbol>
<symbol id="sN" viewBox="0 0 30 30">
  <path fill="none" stroke="#555"
        d="m26,15a11,11,0,1,1,-22,0,11,11,0,1,1,22,0z"/>
</symbol>
<symbol id="sX" viewBox="0 0 30 30">
  <path fill="#ff8000"
        d="m16.14,20.82-0.4-2.2c0-0.36-0.04-0.68-0.04-0.92,0-1.64,0.36-1.64,1.72-3.04l1.48-1.52c1.92-2,2.56-3.36,2.56-5.08,0-3.84-2.6-6.24-6.6-6.24-2.28,0-4.36,0.6-6.32,1.96v3.24c2.12-1.56,4.08-2.36,5.76-2.36,2.36,0,3.92,1.44,3.92,3.44-0.08,1.24-0.56,2.28-1.76,3.4l-1.48,1.56c-2.04,2.2-2.36,3.12-2.36,5.48l-0.44,2.28h3.96m-2,2.56c-1.28,0-2.32,1.08-2.32,2.44,0,1.32,1.04,2.36,2.32,2.36s2.4-1.04,2.4-2.36c0-1.36-1.12-2.44-2.4-2.44"/>
</symbol>
</defs>
<g id="x" transform="translate(0,0)">
  <use xlink:href="#sX" x="7.5" y="7.5" width="15" height="15"/>
</g>
<g id="y" transform="translate(0,30)">
  <use xlink:href="#sY" x="7.5" y="7.5" width="15" height="15"/>
</g>
<g id="p" transform="translate(0,60)">
  <use xlink:href="#sP" x="7.5" y="7.5" width="15" height="15"/>
</g>
<g id="b" transform="translate(30,0)">
  <use xlink:href="#sB" x="7.5" y="7.5" width="15" height="15"/>
</g>
<g id="n" transform="translate(60,0)">
  <use xlink:href="#sN" x="7.5" y="7.5" width="15" height="15"/>
</g>
<g id="yp" transform="translate(0,90)">
  <use xlink:href="#sY" x="7.5" y="7.5" width="7.5" height="7.5"/>
  <use xlink:href="#sP" x="15" y="15" width="7.5" height="7.5"/>
</g>
<g id="yb" transform="translate(30,30)">
  <use xlink:href="#sY" x="7.5" y="7.5" width="7.5" height="7.5"/>
  <use xlink:href="#sB" x="15" y="15" width="7.5" height="7.5"/>
</g>
<g id="yn" transform="translate(60,30)">
  <use xlink:href="#sY" x="7.5" y="7.5" width="7.5" height="7.5"/>
  <use xlink:href="#sN" x="15" y="15" width="7.5" height="7.5"/>
</g>
<g id="pb" transform="translate(30,60)">
  <use xlink:href="#sP" x="7.5" y="7.5" width="7.5" height="7.5"/>
  <use xlink:href="#sB" x="15" y="15" width="7.5" height="7.5"/>
</g>
<g id="pn" transform="translate(60,60)">
  <use xlink:href="#sP" x="7.5" y="7.5" width="7.5" height="7.5"/>
  <use xlink:href="#sN" x="15" y="15" width="7.5" height="7.5"/>
</g>
<g id="bn" transform="translate(90,0)">
  <use xlink:href="#sB" x="7.5" y="7.5" width="7.5" height="7.5"/>
  <use xlink:href="#sN" x="15" y="15" width="7.5" height="7.5"/>
</g>
<g id="ypb" transform="translate(30,90)">
  <use xlink:href="#sY" x="7.5" y="7.5" width="7.5" height="7.5"/>
  <use xlink:href="#sP" x="15" y="7.5" width="7.5" height="7.5"/>
  <use xlink:href="#sB" x="7.5" y="15" width="7.5" height="7.5"/>
</g>
<g id="ypn" transform="translate(60,90)">
  <use xlink:href="#sY" x="7.5" y="7.5" width="7.5" height="7.5"/>
  <use xlink:href="#sP" x="15" y="7.5" width="7.5" height="7.5"/>
  <use xlink:href="#sN" x="7.5" y="15" width="7.5" height="7.5"/>
</g>
<g id="ybn" transform="translate(90,30)">
  <use xlink:href="#sY" x="7.5" y="7.5" width="7.5" height="7.5"/>
  <use xlink:href="#sB" x="7.5" y="15" width="7.5" height="7.5"/>
  <use xlink:href="#sN" x="15" y="15" width="7.5" height="7.5"/>
</g>
<g id="pbn" transform="translate(90,60)">
  <use xlink:href="#sP" x="7.5" y="7.5" width="7.5" height="7.5"/>
  <use xlink:href="#sB" x="7.5" y="15" width="7.5" height="7.5"/>
  <use xlink:href="#sN" x="15" y="15" width="7.5" height="7.5"/>
</g>
<g id="ypbn" transform="translate(90,90)">
  <use xlink:href="#sY" x="7.5" y="7.5" width="7.5" height="7.5"/>
  <use xlink:href="#sP" x="15" y="7.5" width="7.5" height="7.5"/>
  <use xlink:href="#sB" x="7.5" y="15" width="7.5" height="7.5"/>
  <use xlink:href="#sN" x="15" y="15" width="7.5" height="7.5"/>
</g>

</svg>
