<?xml version="1.0"?>
<svg xmlns="http://www.w3.org/2000/svg"
     xmlns:xlink="http://www.w3.org/1999/xlink"
     version="1.1" viewBox="0 0 30 30">
<defs>
<style type="text/css"><![CDATA[
g{display:none}
g:target{display:inline}
]]></style>
<symbol id="sY" viewBox="0 0 30 30">
  <path fill="#008000" d="m26,15a11,11,0,1,1,-22,0,11,11,0,1,1,22,0z"/>
</symbol>
<symbol id="sP" viewBox="0 0 30 30">
  <path stroke-linejoin="round" stroke-linecap="round" stroke-width="2"
        stroke="#0000b6" fill="none"
        d="m27,15-9,3-3,9-3-9-9-3,9-3,3-9,3,9z"/>
</symbol>
<symbol id="sB" viewBox="0 0 30 30">
  <path stroke-linecap="round" stroke-width="2" stroke="#d40000" fill="none"
        d="m3,3,24,24m0-24-24,24"/>
</symbol>
<symbol id="sN" viewBox="0 0 30 30">
  <path fill="#999" d="M13,2.1562c-2.092,0.3223-4.0185,1.1494-5.6562,2.3438l1.4375,1.4375c1.2457-0.8565,2.6747-1.4661,4.2187-1.75v-2.0312zm4,0,0,2.0312c1.5443,0.28385,2.9726,0.89354,4.2188,1.75l1.437-1.4374c-1.637-1.1944-3.564-2.0215-5.656-2.3438zm8.5,5.1563-1.438,1.4375c0.86404,1.251,1.4646,2.6971,1.75,4.25h2.0312c-0.323-2.101-1.141-4.0454-2.343-5.6875zm-21,0.0313c-1.1944,1.6377-2.0215,3.5642-2.3438,5.6562h2.0312c0.28544-1.5529,0.88596-2.999,1.75-4.25l-1.4374-1.4062zm-2.3438,9.6562c0.32223,2.092,1.1493,4.0185,2.3438,5.6562l1.4375-1.4375c-0.8565-1.245-1.4661-2.674-1.75-4.218h-2.0312zm23.656,0c-0.28385,1.5443-0.89354,2.9726-1.75,4.2188l1.438,1.437c1.194-1.637,2.022-3.564,2.344-5.656h-2.032zm-17.062,7.062-1.4375,1.438c1.6421,1.2024,3.5869,2.0202,5.6875,2.3438v-2.0312c-1.5529-0.28544-2.999-0.88596-4.25-1.75zm12.5,0c-1.251,0.86404-2.6971,1.4646-4.25,1.75v2.0312c2.101-0.323,4.045-1.141,5.688-2.343l-1.438-1.438z"/>
</symbol>
</defs>
<g id="y"><use xlink:href="#sY" x="0" y="0" width="30" height="30"/></g>
<g id="p"><use xlink:href="#sP" x="0" y="0" width="30" height="30"/></g>
<g id="b"><use xlink:href="#sB" x="0" y="0" width="30" height="30"/></g>
<g id="n"><use xlink:href="#sN" x="0" y="0" width="30" height="30"/></g>
<g id="yp">
  <use xlink:href="#sY" x="0" y="0" width="15" height="15"/>
  <use xlink:href="#sP" x="15" y="15" width="15" height="15"/>
</g>
<g id="yb">
  <use xlink:href="#sY" x="0" y="0" width="15" height="15"/>
  <use xlink:href="#sB" x="15" y="15" width="15" height="15"/>
</g>
<g id="yn">
  <use xlink:href="#sY" x="0" y="0" width="15" height="15"/>
  <use xlink:href="#sN" x="15" y="15" width="15" height="15"/>
</g>
<g id="pb">
  <use xlink:href="#sP" x="0" y="0" width="15" height="15"/>
  <use xlink:href="#sB" x="15" y="15" width="15" height="15"/>
</g>
<g id="pn">
  <use xlink:href="#sP" x="0" y="0" width="15" height="15"/>
  <use xlink:href="#sN" x="15" y="15" width="15" height="15"/>
</g>
<g id="bn">
  <use xlink:href="#sB" x="0" y="0" width="15" height="15"/>
  <use xlink:href="#sN" x="15" y="15" width="15" height="15"/>
</g>
<g id="ypb">
  <use xlink:href="#sY" x="0" y="0" width="15" height="15"/>
  <use xlink:href="#sP" x="15" y="0" width="15" height="15"/>
  <use xlink:href="#sB" x="7.5" y="15" width="15" height="15"/>
</g>
<g id="ypn">
  <use xlink:href="#sY" x="0" y="0" width="15" height="15"/>
  <use xlink:href="#sP" x="15" y="0" width="15" height="15"/>
  <use xlink:href="#sN" x="7.5" y="15" width="15" height="15"/>
</g>
<g id="ybn">
  <use xlink:href="#sY" x="7.5" y="0" width="15" height="15"/>
  <use xlink:href="#sB" x="0" y="15" width="15" height="15"/>
  <use xlink:href="#sN" x="15" y="15" width="15" height="15"/>
</g>
<g id="pbn">
  <use xlink:href="#sP" x="7.5" y="0" width="15" height="15"/>
  <use xlink:href="#sB" x="0" y="15" width="15" height="15"/>
  <use xlink:href="#sN" x="15" y="15" width="15" height="15"/>
</g>
<g id="ypbn">
  <use xlink:href="#sY" x="0" y="0" width="15" height="15"/>
  <use xlink:href="#sP" x="15" y="0" width="15" height="15"/>
  <use xlink:href="#sB" x="0" y="15" width="15" height="15"/>
  <use xlink:href="#sN" x="15" y="15" width="15" height="15"/>
</g>

</svg>
