<?xml version="1.0"?>
<svg xmlns="http://www.w3.org/2000/svg"
     xmlns:xlink="http://www.w3.org/1999/xlink"
     version="1.1" viewBox="0 0 120 120">
<defs>
<symbol id="sY" viewBox="0 0 30 30">
  <path fill="#008000" d="m26,15a11,11,0,1,1,-22,0,11,11,0,1,1,22,0z"/>
</symbol>
<symbol id="sP" viewBox="0 0 30 30">
  <path stroke-linejoin="round" stroke-linecap="round" stroke-width="2"
        stroke="#0000b6" fill="none"
        d="m27,15-9,3-3,9-3-9-9-3,9-3,3-9,3,9z"/>
</symbol>
<symbol id="sB" viewBox="0 0 30 30">
  <path stroke-linecap="round" stroke-width="2" stroke="#d40000" fill="none"
        d="m3,3,24,24m0-24-24,24"/>
</symbol>
<symbol id="sN" viewBox="0 0 30 30">
  <path fill="none" stroke="black"
        d="m26,15a11,11,0,1,1,-22,0,11,11,0,1,1,22,0z"/>
</symbol>
</defs>
<g id="y" transform="translate(0,30)">
  <use xlink:href="#sY" x="0" y="0" width="30" height="30"/>
</g>
<g id="p" transform="translate(0,60)">
  <use xlink:href="#sP" x="0" y="0" width="30" height="30"/>
</g>
<g id="b" transform="translate(30,0)">
  <use xlink:href="#sB" x="0" y="0" width="30" height="30"/>
</g>
<g id="n" transform="translate(60,0)">
  <use xlink:href="#sN" x="0" y="0" width="30" height="30"/>
</g>
<g id="yp" transform="translate(0,90)">
  <use xlink:href="#sY" x="0" y="0" width="15" height="15"/>
  <use xlink:href="#sP" x="15" y="15" width="15" height="15"/>
</g>
<g id="yb" transform="translate(30,30)">
  <use xlink:href="#sY" x="0" y="0" width="15" height="15"/>
  <use xlink:href="#sB" x="15" y="15" width="15" height="15"/>
</g>
<g id="yn" transform="translate(60,30)">
  <use xlink:href="#sY" x="0" y="0" width="15" height="15"/>
  <use xlink:href="#sN" x="15" y="15" width="15" height="15"/>
</g>
<g id="pb" transform="translate(30,60)">
  <use xlink:href="#sP" x="0" y="0" width="15" height="15"/>
  <use xlink:href="#sB" x="15" y="15" width="15" height="15"/>
</g>
<g id="pn" transform="translate(60,60)">
  <use xlink:href="#sP" x="0" y="0" width="15" height="15"/>
  <use xlink:href="#sN" x="15" y="15" width="15" height="15"/>
</g>
<g id="bn" transform="translate(90,0)">
  <use xlink:href="#sB" x="0" y="0" width="15" height="15"/>
  <use xlink:href="#sN" x="15" y="15" width="15" height="15"/>
</g>
<g id="ypb" transform="translate(30,90)">
  <use xlink:href="#sY" x="0" y="0" width="15" height="15"/>
  <use xlink:href="#sP" x="15" y="0" width="15" height="15"/>
  <use xlink:href="#sB" x="7.5" y="15" width="15" height="15"/>
</g>
<g id="ypn" transform="translate(60,90)">
  <use xlink:href="#sY" x="0" y="0" width="15" height="15"/>
  <use xlink:href="#sP" x="15" y="0" width="15" height="15"/>
  <use xlink:href="#sN" x="7.5" y="15" width="15" height="15"/>
</g>
<g id="ybn" transform="translate(90,30)">
  <use xlink:href="#sY" x="7.5" y="0" width="15" height="15"/>
  <use xlink:href="#sB" x="0" y="15" width="15" height="15"/>
  <use xlink:href="#sN" x="15" y="15" width="15" height="15"/>
</g>
<g id="pbn" transform="translate(90,60)">
  <use xlink:href="#sP" x="7.5" y="0" width="15" height="15"/>
  <use xlink:href="#sB" x="0" y="15" width="15" height="15"/>
  <use xlink:href="#sN" x="15" y="15" width="15" height="15"/>
</g>
<g id="ypbn" transform="translate(90,90)">
  <use xlink:href="#sY" x="0" y="0" width="15" height="15"/>
  <use xlink:href="#sP" x="15" y="0" width="15" height="15"/>
  <use xlink:href="#sB" x="0" y="15" width="15" height="15"/>
  <use xlink:href="#sN" x="15" y="15" width="15" height="15"/>
</g>

</svg>
